<svg width="94" height="23" viewBox="0 0 94 23" fill="none" xmlns="http://www.w3.org/2000/svg">
<g clip-path="url(#clip0_922_221227)">
<path d="M93.4618 15.1613H92.1037C91.7674 15.1613 91.4448 15.0277 91.2069 14.7899C90.9691 14.552 90.8354 14.2294 90.8354 13.893V8.29769H93.3126C93.3694 8.2977 93.4256 8.28653 93.4781 8.2648C93.5305 8.24308 93.5782 8.21123 93.6184 8.17108C93.6585 8.13093 93.6904 8.08326 93.7121 8.03079C93.7339 7.97832 93.7451 7.92209 93.7451 7.86529V5.77088C93.7451 5.65618 93.6995 5.54617 93.6184 5.46506C93.5373 5.38395 93.4273 5.33838 93.3126 5.33838H90.8354V2.42313C90.8354 2.35107 90.8174 2.28015 90.783 2.21682C90.7486 2.15349 90.699 2.09976 90.6385 2.06051C90.5781 2.02126 90.5088 1.99773 90.437 1.99206C90.3651 1.98639 90.293 1.99877 90.2271 2.02806L87.6626 3.16923C87.5633 3.21341 87.479 3.28542 87.4198 3.37654C87.3606 3.46767 87.3291 3.574 87.3291 3.68266V14.4649C87.3291 14.945 87.4236 15.4204 87.6073 15.8639C87.791 16.3074 88.0603 16.7104 88.3998 17.0499C88.7392 17.3894 89.1422 17.6586 89.5857 17.8424C90.0293 18.0261 90.5046 18.1206 90.9847 18.1206H93.4618C93.5186 18.1206 93.5749 18.1095 93.6273 18.0877C93.6798 18.066 93.7275 18.0341 93.7677 17.994C93.8078 17.9538 93.8397 17.9061 93.8614 17.8536C93.8831 17.8012 93.8943 17.7449 93.8943 17.6881V15.5937C93.8943 15.5369 93.8831 15.4807 93.8614 15.4282C93.8397 15.3758 93.8078 15.3281 93.7676 15.2879C93.7275 15.2478 93.6798 15.2159 93.6273 15.1942C93.5749 15.1725 93.5186 15.1613 93.4618 15.1613Z" fill="black"/>
<path d="M86.472 14.1165C86.472 16.6531 84.0845 18.2695 80.6527 18.2695C77.9487 18.2695 75.9062 17.3059 75.0172 15.6412C74.9896 15.5889 74.973 15.5314 74.9685 15.4723C74.964 15.4133 74.9717 15.354 74.9911 15.298C75.0105 15.2421 75.0412 15.1907 75.0814 15.1472C75.1215 15.1036 75.1701 15.0688 75.2243 15.0448L77.1238 14.1994C77.2157 14.158 77.3192 14.1502 77.4163 14.1774C77.5134 14.2046 77.5978 14.265 77.6549 14.3481C78.045 14.8955 78.5972 15.3065 79.2336 15.5231C79.4224 15.5939 79.6173 15.6475 79.8158 15.6833C80.1003 15.7345 80.3889 15.7595 80.678 15.7579C80.709 15.7579 80.7394 15.7579 80.77 15.7569C81.6994 15.7439 82.3885 15.5356 82.7512 15.1449C82.9423 14.9406 83.0461 14.6698 83.0405 14.3901C83.0405 13.4262 82.2987 13.2886 80.5629 13.0577C80.4177 13.0385 80.2654 13.0185 80.106 12.9975C79.9225 12.9758 79.7416 12.953 79.5634 12.9291C78.8059 12.8383 78.0582 12.6799 77.329 12.4557C75.8033 11.9538 74.8091 11.0702 74.8091 9.34225C74.8091 6.80567 77.0224 5.1395 80.3053 5.16434C82.8575 5.16434 84.8184 6.00338 85.7273 7.50737C85.7592 7.5599 85.7795 7.61861 85.7869 7.67959C85.7942 7.74056 85.7886 7.80241 85.7702 7.86103C85.7519 7.91965 85.7213 7.97369 85.6804 8.01957C85.6396 8.06545 85.5895 8.10211 85.5334 8.12713L83.636 8.97134C83.5481 9.01054 83.4497 9.01928 83.3564 8.99616C83.263 8.97305 83.18 8.91942 83.1206 8.84377C82.5579 8.12308 81.6033 7.6491 80.5214 7.6491C80.4844 7.6491 80.4478 7.64978 80.4113 7.65112C79.385 7.65438 78.6276 7.93886 78.3189 8.43049C78.2175 8.59163 78.1644 8.77847 78.1659 8.96887C78.1659 9.93874 79.2602 10.0382 81.1004 10.2614C81.9543 10.3333 82.8002 10.4805 83.6282 10.7014C85.3116 11.1896 86.472 12.1261 86.472 14.1165Z" fill="black"/>
<path d="M73.0763 5.35156H70.41C70.1712 5.35156 69.9775 5.5452 69.9775 5.78407V17.7013C69.9775 17.9402 70.1712 18.1338 70.41 18.1338H73.0763C73.3152 18.1338 73.5088 17.9402 73.5088 17.7013V5.78407C73.5088 5.5452 73.3152 5.35156 73.0763 5.35156Z" fill="black"/>
<path d="M71.7437 0.817383C71.2643 0.817383 71.2042 0.819406 71.0159 0.828623C70.8694 0.831566 70.7244 0.859308 70.5872 0.910672C70.4699 0.95605 70.3634 1.02542 70.2745 1.11433C70.1856 1.20325 70.1162 1.30975 70.0708 1.42703C70.0195 1.56426 69.9917 1.7092 69.9888 1.85571C69.9801 2.04397 69.9775 2.10411 69.9775 2.58359C69.9775 3.06308 69.9796 3.1231 69.9888 3.31159C69.9917 3.45806 70.0195 3.60297 70.0708 3.74016C70.1162 3.85746 70.1855 3.96399 70.2745 4.05293C70.3634 4.14187 70.4699 4.21125 70.5872 4.25662C70.7244 4.30799 70.8694 4.33573 71.0159 4.33867C71.2041 4.34722 71.2643 4.34924 71.7437 4.34924C72.2232 4.34924 72.2833 4.34722 72.4717 4.33867C72.6182 4.33575 72.7631 4.308 72.9003 4.25662C73.0177 4.21134 73.1244 4.142 73.2134 4.05305C73.3025 3.96411 73.3719 3.85753 73.4173 3.74016C73.4687 3.60297 73.4965 3.45806 73.4994 3.31159C73.5079 3.12332 73.51 3.06319 73.51 2.58359C73.51 2.10399 73.5079 2.04409 73.4994 1.85571C73.4965 1.7092 73.4687 1.56426 73.4173 1.42703C73.3719 1.30968 73.3024 1.20313 73.2134 1.11421C73.1244 1.02529 73.0177 0.955959 72.9003 0.910672C72.7631 0.859294 72.6182 0.83155 72.4717 0.828623C72.2835 0.819406 72.2233 0.817383 71.7437 0.817383Z" fill="black"/>
<path d="M68.108 0.726562H65.4667C65.2278 0.726562 65.0342 0.920201 65.0342 1.15907V17.701C65.0342 17.9399 65.2278 18.1335 65.4667 18.1335H68.108C68.3469 18.1335 68.5405 17.9399 68.5405 17.701V1.15907C68.5405 0.920201 68.3469 0.726562 68.108 0.726562Z" fill="black"/>
<path d="M63.8857 5.77103V8.08922C63.8856 8.2039 63.84 8.31386 63.7589 8.39494C63.6778 8.47602 63.5678 8.52158 63.4532 8.52161H62.4931C60.4041 8.52161 59.6083 9.91432 59.6083 11.854V17.6883C59.6083 17.803 59.5627 17.9129 59.4816 17.994C59.4005 18.0751 59.2906 18.1207 59.1759 18.1208H56.5346C56.4199 18.1207 56.3099 18.0751 56.2288 17.994C56.1477 17.9129 56.1021 17.803 56.1021 17.6883V5.77103C56.1021 5.65634 56.1477 5.54636 56.2288 5.46527C56.3099 5.38417 56.4199 5.33858 56.5346 5.33852H59.174C59.2887 5.33852 59.3987 5.38409 59.4798 5.4652C59.5609 5.54631 59.6065 5.65632 59.6065 5.77103V6.45429C59.6065 6.45429 61.3075 5.69437 61.3806 5.66447C61.9894 5.43273 62.6377 5.32201 63.289 5.33852H63.4535C63.5682 5.33861 63.6781 5.38422 63.7591 5.46532C63.8401 5.54642 63.8857 5.65638 63.8857 5.77103Z" fill="black"/>
<path fill-rule="evenodd" clip-rule="evenodd" d="M43.0184 8.41498C43.5368 7.4487 44.3237 6.6531 45.2843 6.12422C46.2554 5.58492 47.38 5.31516 48.6582 5.31494C49.9531 5.31494 51.0944 5.56811 52.0819 6.07444C53.041 6.55458 53.844 7.29716 54.3976 8.2158C54.9535 9.13707 55.2398 10.2202 55.2566 11.4652C55.2584 11.7844 55.2383 12.1033 55.1964 12.4198C55.1873 12.4863 55.1544 12.5474 55.1038 12.5916C55.0532 12.6359 54.9883 12.6603 54.9211 12.6603H45.8693V12.7602C45.9522 13.6901 46.251 14.4205 46.7657 14.9514C47.2805 15.4824 47.9859 15.7479 48.8822 15.748C49.5957 15.748 50.1891 15.5944 50.6625 15.2873C51.0828 15.0148 51.3937 14.603 51.5406 14.1241C51.5582 14.0682 51.5931 14.0194 51.6403 13.9845C51.6874 13.9497 51.7444 13.9307 51.803 13.9303H54.7222C54.7638 13.9303 54.8049 13.9397 54.8424 13.9577C54.8799 13.9758 54.9129 14.002 54.9389 14.0345C54.965 14.067 54.9833 14.1049 54.9928 14.1455C55.0022 14.186 55.0023 14.2282 54.9933 14.2688C54.8356 14.9773 54.5263 15.6432 54.0866 16.2207C53.5718 16.9015 52.8912 17.4369 52.0448 17.8268C51.1984 18.2167 50.2273 18.4117 49.1316 18.4119C47.7037 18.4119 46.4712 18.1463 45.4339 17.6151C44.4265 17.1129 43.5936 16.319 43.0436 15.3368C42.4872 14.3494 42.2092 13.1998 42.2095 11.8882C42.2093 10.5605 42.4789 9.40278 43.0184 8.41498ZM50.7871 8.56444C51.3099 8.98785 51.6295 9.58957 51.7459 10.3696L45.9441 10.3696C46.0438 9.62263 46.355 9.02918 46.8778 8.5893C47.4006 8.14942 48.0439 7.92948 48.8076 7.92948C49.6045 7.92937 50.2643 8.14102 50.7871 8.56444Z" fill="black"/>
<path d="M35.5304 5.27655C34.9217 5.27147 34.3169 5.37422 33.7441 5.58002C33.6969 5.5971 31.7007 6.48122 31.7007 6.48122V5.85831C31.7007 5.74361 31.6551 5.6336 31.574 5.55249C31.4929 5.47138 31.3829 5.42581 31.2682 5.42581H28.6268C28.57 5.42581 28.5138 5.437 28.4613 5.45873C28.4089 5.48047 28.3612 5.51233 28.321 5.55249C28.2809 5.59265 28.249 5.64033 28.2273 5.6928C28.2055 5.74528 28.1943 5.80152 28.1943 5.85831V22.5156C28.1943 22.5877 28.2124 22.6586 28.2468 22.7219C28.2812 22.7853 28.3308 22.839 28.3913 22.8783C28.4517 22.9175 28.521 22.941 28.5929 22.9467C28.6648 22.9524 28.7369 22.94 28.8027 22.9107L31.3674 21.7688C31.4667 21.7246 31.551 21.6526 31.6101 21.5615C31.6693 21.4703 31.7008 21.364 31.7008 21.2554V17.167L33.4972 17.9669C34.1503 18.2333 34.8501 18.366 35.5553 18.357C35.6785 18.357 35.8003 18.3537 35.9209 18.347C39.1621 18.1727 41.4744 15.6774 41.4744 11.8418C41.4744 7.81313 38.9871 5.25171 35.5304 5.27655ZM34.7595 15.4976C32.8445 15.4976 31.6509 13.9802 31.6509 11.7923C31.6509 9.62879 32.8445 8.13638 34.7595 8.13638C36.6744 8.13638 37.9178 9.62845 37.9178 11.7923C37.9177 13.9802 36.6743 15.4976 34.7595 15.4976Z" fill="black"/>
<path d="M26.8419 5.77088V17.6904C26.8419 17.8051 26.7963 17.915 26.7152 17.9961C26.6341 18.0772 26.5241 18.1227 26.4094 18.1228H23.7681C23.7113 18.1228 23.6551 18.1116 23.6026 18.0899C23.5501 18.0682 23.5024 18.0364 23.4623 17.9962C23.4221 17.956 23.3903 17.9084 23.3686 17.8559C23.3468 17.8034 23.3357 17.7472 23.3357 17.6904V17.1635L21.7555 17.8665C21.249 18.0847 20.709 18.2146 20.1587 18.2507C19.9968 18.263 19.829 18.2698 19.6547 18.2698C17.0187 18.2698 14.5815 16.9518 14.5815 12.4258V5.77088C14.5815 5.65618 14.6271 5.54617 14.7082 5.46506C14.7893 5.38395 14.8993 5.33838 15.014 5.33838H17.6554C17.7701 5.33838 17.8801 5.38395 17.9612 5.46506C18.0423 5.54617 18.0879 5.65618 18.0879 5.77088V11.9533C18.0879 14.2411 18.834 15.3603 20.5747 15.3603C22.3154 15.3603 23.335 14.092 23.335 11.7298V5.77088C23.335 5.65618 23.3806 5.54617 23.4617 5.46506C23.5428 5.38395 23.6528 5.33838 23.7675 5.33838H26.4089C26.4657 5.33831 26.522 5.34944 26.5746 5.37114C26.6271 5.39284 26.6748 5.42469 26.7151 5.46486C26.7553 5.50503 26.7872 5.55273 26.809 5.60524C26.8307 5.65775 26.8419 5.71404 26.8419 5.77088Z" fill="black"/>
<path d="M13.6902 12.7813C13.6654 16.0391 10.9795 18.2776 6.90143 18.2776C3.36092 18.2776 0.88638 16.7821 0.0251927 14.3762C-0.0114845 14.2735 -0.00800749 14.1608 0.0349275 14.0605C0.0778624 13.9603 0.157085 13.8799 0.256731 13.8356L2.51591 12.8298C2.61852 12.7843 2.73481 12.7804 2.84021 12.819C2.94561 12.8576 3.03189 12.9357 3.08082 13.0367C3.44776 13.7729 4.03123 14.3792 4.75284 14.774C5.1838 15.0126 5.65234 15.1758 6.13825 15.2567C6.14477 15.2579 6.15095 15.2587 6.15713 15.2597C6.16759 15.2614 6.17781 15.2628 6.18827 15.2646C6.42683 15.2986 6.66743 15.3163 6.9084 15.3176C7.79202 15.3153 8.65394 15.0437 9.37911 14.5388C9.55943 14.3671 9.70202 14.1598 9.79781 13.93C9.8936 13.7002 9.94048 13.453 9.93548 13.2041C9.93548 11.7368 8.51804 11.4384 5.60819 10.8662C4.65371 10.6885 3.7361 10.4681 2.93212 10.1307C1.26482 9.43077 0.0873483 8.22554 0.0873483 5.84272C0.0873483 2.75944 2.64877 0.571289 6.57795 0.571289C9.82847 0.571289 12.1422 1.91342 12.9884 4.12776C13.0273 4.23089 13.0251 4.34499 12.9824 4.44659C12.9397 4.54819 12.8597 4.62958 12.7589 4.67401L10.4885 5.68536C10.3889 5.72935 10.2765 5.7343 10.1735 5.69924C10.0705 5.66417 9.98446 5.59166 9.93244 5.49608C9.56974 4.84395 9.01997 4.31544 8.35405 3.97872C7.72288 3.6597 7.01666 3.51884 6.3114 3.57128C5.60613 3.62372 4.92852 3.86749 4.35147 4.27635C4.18322 4.44602 4.0513 4.6482 3.96378 4.87055C3.87626 5.0929 3.83497 5.33075 3.84243 5.56959C3.84243 6.69682 4.70788 7.11629 6.51152 7.51597C6.97662 7.61893 7.50376 7.72065 8.09486 7.8326C8.37023 7.88306 8.64224 7.93645 8.90985 7.99467C9.35427 8.09145 9.7852 8.20103 10.1948 8.33186C12.2125 8.97669 13.7091 10.1356 13.6902 12.7813Z" fill="black"/>
</g>
<defs>
<clipPath id="clip0_922_221227">
<rect width="94" height="22.3772" fill="white" transform="translate(0 0.571289)"/>
</clipPath>
</defs>
</svg>
