<svg width="144" height="35" viewBox="0 0 144 35" fill="none" xmlns="http://www.w3.org/2000/svg">
<g clip-path="url(#clip0_907_202261)">
<path d="M143.175 22.8286H141.095C140.579 22.8286 140.085 22.6239 139.721 22.2595C139.356 21.8952 139.152 21.401 139.152 20.8857V12.3141H142.946C143.033 12.3141 143.12 12.297 143.2 12.2637C143.28 12.2304 143.353 12.1816 143.415 12.1201C143.476 12.0586 143.525 11.9856 143.559 11.9052C143.592 11.8248 143.609 11.7387 143.609 11.6517V8.44323C143.609 8.26751 143.539 8.09898 143.415 7.97473C143.291 7.85048 143.122 7.78067 142.946 7.78067H139.152V3.31476C139.152 3.20437 139.124 3.09572 139.071 2.99871C139.019 2.9017 138.943 2.81938 138.85 2.75925C138.757 2.69912 138.651 2.66308 138.541 2.6544C138.431 2.64571 138.321 2.66467 138.22 2.70954L134.291 4.45771C134.139 4.52539 134.01 4.63571 133.919 4.77531C133.829 4.9149 133.78 5.07779 133.78 5.24424V21.7618C133.78 22.4972 133.925 23.2254 134.207 23.9049C134.488 24.5843 134.9 25.2017 135.42 25.7217C135.94 26.2417 136.558 26.6543 137.237 26.9357C137.917 27.2171 138.645 27.362 139.38 27.362H143.175C143.262 27.362 143.348 27.3449 143.429 27.3116C143.509 27.2783 143.582 27.2295 143.644 27.1679C143.705 27.1064 143.754 27.0334 143.787 26.953C143.821 26.8726 143.838 26.7864 143.838 26.6994V23.491C143.838 23.404 143.821 23.3178 143.787 23.2375C143.754 23.1571 143.705 23.0841 143.644 23.0225C143.582 22.961 143.509 22.9122 143.429 22.879C143.348 22.8457 143.262 22.8286 143.175 22.8286Z" fill="black"/>
<path d="M132.467 21.2281C132.467 25.1139 128.81 27.5901 123.553 27.5901C119.41 27.5901 116.281 26.114 114.919 23.5638C114.877 23.4836 114.852 23.3955 114.845 23.3051C114.838 23.2146 114.85 23.1237 114.879 23.038C114.909 22.9523 114.956 22.8737 115.018 22.807C115.079 22.7402 115.154 22.6869 115.237 22.6502L118.147 21.355C118.287 21.2916 118.446 21.2797 118.595 21.3213C118.743 21.363 118.873 21.4555 118.96 21.5828C119.558 22.4214 120.404 23.051 121.379 23.3828C121.668 23.4913 121.966 23.5735 122.27 23.6282C122.706 23.7066 123.148 23.7449 123.591 23.7425C123.639 23.7425 123.685 23.7425 123.732 23.741C125.156 23.7212 126.212 23.4019 126.767 22.8034C127.06 22.4905 127.219 22.0756 127.21 21.6472C127.21 20.1706 126.074 19.9598 123.415 19.606C123.193 19.5767 122.959 19.546 122.715 19.5139C122.434 19.4806 122.157 19.4456 121.884 19.409C120.723 19.27 119.578 19.0273 118.461 18.6838C116.124 17.915 114.601 16.5614 114.601 13.9143C114.601 10.0285 117.991 7.47604 123.02 7.51409C126.93 7.51409 129.934 8.79944 131.326 11.1034C131.375 11.1839 131.406 11.2738 131.418 11.3672C131.429 11.4606 131.42 11.5554 131.392 11.6452C131.364 11.735 131.317 11.8178 131.255 11.8881C131.192 11.9584 131.115 12.0145 131.029 12.0528L128.123 13.3461C127.988 13.4061 127.837 13.4195 127.694 13.3841C127.551 13.3487 127.424 13.2666 127.333 13.1507C126.471 12.0466 125.009 11.3205 123.351 11.3205C123.295 11.3205 123.239 11.3216 123.183 11.3236C121.61 11.3286 120.45 11.7644 119.977 12.5176C119.822 12.7644 119.741 13.0506 119.743 13.3423C119.743 14.8281 121.419 14.9805 124.238 15.3224C125.546 15.4325 126.842 15.658 128.111 15.9963C130.69 16.7443 132.467 18.1789 132.467 21.2281Z" fill="black"/>
<path d="M111.947 7.7998H107.863C107.497 7.7998 107.2 8.09644 107.2 8.46236V26.7186C107.2 27.0845 107.497 27.3811 107.863 27.3811H111.947C112.313 27.3811 112.61 27.0845 112.61 26.7186V8.46236C112.61 8.09644 112.313 7.7998 111.947 7.7998Z" fill="black"/>
<path d="M109.906 0.855469C109.171 0.855469 109.079 0.858568 108.791 0.872687C108.566 0.877196 108.344 0.919695 108.134 0.998381C107.954 1.0679 107.791 1.17416 107.655 1.31037C107.519 1.44658 107.413 1.60974 107.343 1.78939C107.264 1.99962 107.222 2.22166 107.217 2.44609C107.204 2.7345 107.2 2.82662 107.2 3.56115C107.2 4.29568 107.203 4.38763 107.217 4.67638C107.222 4.90076 107.264 5.12275 107.343 5.33291C107.413 5.51261 107.519 5.67581 107.655 5.81205C107.791 5.94829 107.954 6.05458 108.134 6.12409C108.344 6.20278 108.566 6.24528 108.791 6.24979C109.079 6.26287 109.171 6.26597 109.906 6.26597C110.64 6.26597 110.732 6.26287 111.021 6.24979C111.245 6.2453 111.467 6.2028 111.678 6.12409C111.858 6.05472 112.021 5.94849 112.157 5.81224C112.294 5.67599 112.4 5.51272 112.47 5.33291C112.548 5.12275 112.591 4.90076 112.595 4.67638C112.608 4.38797 112.612 4.29586 112.612 3.56115C112.612 2.82645 112.608 2.73467 112.595 2.44609C112.591 2.22166 112.548 1.99962 112.47 1.78939C112.4 1.60963 112.294 1.4464 112.157 1.31018C112.021 1.17396 111.857 1.06776 111.678 0.998381C111.467 0.919672 111.245 0.877172 111.021 0.872687C110.733 0.858568 110.641 0.855469 109.906 0.855469Z" fill="black"/>
<path d="M104.336 0.714844H100.29C99.9236 0.714844 99.627 1.01148 99.627 1.3774V26.7183C99.627 27.0842 99.9236 27.3808 100.29 27.3808H104.336C104.702 27.3808 104.998 27.0842 104.998 26.7183V1.3774C104.998 1.01148 104.702 0.714844 104.336 0.714844Z" fill="black"/>
<path d="M97.8672 8.44334V11.9946C97.8671 12.1703 97.7973 12.3388 97.673 12.463C97.5488 12.5872 97.3803 12.657 97.2046 12.657H95.7339C92.5337 12.657 91.3146 14.7905 91.3146 17.7619V26.6996C91.3146 26.8752 91.2448 27.0437 91.1206 27.1679C90.9964 27.2922 90.8279 27.362 90.6522 27.3621H86.6059C86.4302 27.362 86.2618 27.2922 86.1375 27.168C86.0133 27.0437 85.9435 26.8752 85.9434 26.6996V8.44334C85.9435 8.26765 86.0133 8.09918 86.1375 7.97495C86.2618 7.85071 86.4302 7.78088 86.6059 7.78078H90.6493C90.825 7.78078 90.9935 7.85059 91.1178 7.97484C91.242 8.0991 91.3119 8.26762 91.3119 8.44334V9.49005C91.3119 9.49005 93.9177 8.32592 94.0296 8.28012C94.9623 7.9251 95.9554 7.75549 96.9531 7.78078H97.2052C97.3808 7.78092 97.5492 7.85079 97.6733 7.97503C97.7975 8.09927 97.8672 8.26771 97.8672 8.44334Z" fill="black"/>
<path fill-rule="evenodd" clip-rule="evenodd" d="M65.9004 12.4941C66.6945 11.0139 67.9 9.79506 69.3715 8.98487C70.8591 8.15871 72.582 7.74546 74.54 7.74512C76.5238 7.74512 78.2721 8.13295 79.7848 8.9086C81.254 9.64414 82.4842 10.7817 83.3323 12.189C84.1839 13.6003 84.6226 15.2596 84.6482 17.1668C84.651 17.6557 84.6201 18.1443 84.5559 18.6291C84.5421 18.7311 84.4917 18.8246 84.4142 18.8924C84.3367 18.9601 84.2373 18.9975 84.1343 18.9976H70.2677V19.1507C70.3947 20.5752 70.8524 21.6941 71.6409 22.5074C72.4295 23.3208 73.5102 23.7275 74.8831 23.7276C75.9762 23.7276 76.8853 23.4924 77.6105 23.0219C78.2544 22.6045 78.7306 21.9736 78.9556 21.2399C78.9826 21.1544 79.0361 21.0795 79.1083 21.0262C79.1805 20.9729 79.2678 20.9438 79.3575 20.9431H83.8295C83.8933 20.9431 83.9562 20.9575 84.0137 20.9851C84.0712 21.0128 84.1217 21.053 84.1616 21.1027C84.2014 21.1525 84.2296 21.2106 84.244 21.2727C84.2584 21.3349 84.2587 21.3994 84.2449 21.4617C84.0033 22.547 83.5294 23.5672 82.8559 24.4519C82.0673 25.4948 81.0247 26.3149 79.728 26.9122C78.4314 27.5094 76.9438 27.8083 75.2652 27.8086C73.0779 27.8086 71.1897 27.4017 69.6007 26.588C68.0575 25.8186 66.7815 24.6024 65.939 23.0978C65.0866 21.5851 64.6607 19.8241 64.6611 17.8148C64.6608 15.7809 65.0739 14.0073 65.9004 12.4941ZM77.8013 12.7231C78.6022 13.3717 79.0918 14.2935 79.2701 15.4884L70.3823 15.4885C70.535 14.3441 71.0118 13.435 71.8127 12.7612C72.6136 12.0873 73.599 11.7504 74.7689 11.7504C75.9897 11.7502 77.0005 12.0744 77.8013 12.7231Z" fill="black"/>
<path d="M54.4296 7.68484C53.4972 7.67708 52.5707 7.83447 51.6931 8.14974C51.6208 8.17591 48.5628 9.5303 48.5628 9.5303V8.57606C48.5628 8.40034 48.493 8.23182 48.3688 8.10756C48.2445 7.98331 48.076 7.9135 47.9003 7.9135H43.854C43.767 7.9135 43.6808 7.93064 43.6004 7.96394C43.52 7.99724 43.447 8.04604 43.3855 8.10756C43.3239 8.16909 43.2751 8.24213 43.2418 8.32251C43.2085 8.4029 43.1914 8.48906 43.1914 8.57606V34.0936C43.1914 34.204 43.219 34.3127 43.2717 34.4097C43.3244 34.5067 43.4005 34.5891 43.4931 34.6492C43.5857 34.7093 43.6919 34.7454 43.802 34.754C43.9121 34.7627 44.0226 34.7437 44.1234 34.6988L48.0523 32.9496C48.2043 32.8819 48.3335 32.7716 48.4241 32.632C48.5148 32.4924 48.563 32.3295 48.563 32.1631V25.9001L51.315 27.1253C52.3154 27.5335 53.3875 27.7367 54.4678 27.723C54.6564 27.723 54.8431 27.7179 55.0278 27.7077C59.993 27.4406 63.5353 23.6181 63.5353 17.7422C63.5353 11.5707 59.7249 7.64679 54.4296 7.68484ZM53.2486 23.3426C50.3151 23.3426 48.4866 21.0182 48.4866 17.6665C48.4866 14.3521 50.3151 12.0659 53.2486 12.0659C56.1821 12.0659 58.087 14.3516 58.087 17.6665C58.0868 21.0182 56.1819 23.3426 53.2486 23.3426Z" fill="black"/>
<path d="M41.1198 8.44283V26.7025C41.1197 26.8782 41.0498 27.0466 40.9256 27.1708C40.8014 27.295 40.6329 27.3648 40.4572 27.3649H36.4109C36.3239 27.3649 36.2378 27.3478 36.1574 27.3145C36.077 27.2813 36.004 27.2325 35.9424 27.171C35.8809 27.1094 35.8321 27.0364 35.7989 26.956C35.7656 26.8756 35.7485 26.7895 35.7485 26.7025V25.8953L33.3278 26.9723C32.5519 27.3065 31.7246 27.5055 30.8816 27.5608C30.6337 27.5798 30.3766 27.5901 30.1095 27.5901C26.0713 27.5901 22.3379 25.5711 22.3379 18.6376V8.44283C22.3379 8.26711 22.4077 8.09859 22.532 7.97433C22.6562 7.85008 22.8247 7.78027 23.0005 7.78027H27.0468C27.2225 7.78027 27.391 7.85008 27.5153 7.97433C27.6395 8.09859 27.7093 8.26711 27.7093 8.44283V17.9138C27.7093 21.4185 28.8523 23.133 31.5189 23.133C34.1855 23.133 35.7475 21.1901 35.7475 17.5715V8.44283C35.7475 8.26711 35.8173 8.09859 35.9416 7.97433C36.0658 7.85008 36.2343 7.78027 36.4101 7.78027H40.4564C40.5434 7.78016 40.6297 7.79722 40.7102 7.83046C40.7907 7.86371 40.8638 7.91249 40.9254 7.97403C40.987 8.03556 41.0359 8.10864 41.0693 8.18908C41.1026 8.26953 41.1198 8.35575 41.1198 8.44283Z" fill="black"/>
<path d="M20.9722 19.1823C20.9342 24.1728 16.8197 27.602 10.5724 27.602C5.14864 27.602 1.35786 25.3111 0.038593 21.6256C-0.0175933 21.4682 -0.0122668 21.2955 0.0535059 21.1419C0.119279 20.9883 0.240641 20.8653 0.39329 20.7974L3.85417 19.2565C4.01136 19.1868 4.18949 19.1809 4.35096 19.24C4.51243 19.2991 4.6446 19.4187 4.71956 19.5735C5.28167 20.7013 6.1755 21.63 7.28095 22.2349C7.94113 22.6004 8.6589 22.8505 9.40328 22.9743C9.41326 22.9762 9.42273 22.9774 9.4322 22.9789C9.44822 22.9815 9.46389 22.9837 9.4799 22.9865C9.84536 23.0385 10.2139 23.0656 10.5831 23.0676C11.9367 23.0642 13.2571 22.648 14.368 21.8745C14.6442 21.6116 14.8627 21.294 15.0094 20.9419C15.1561 20.5899 15.228 20.2112 15.2203 19.8299C15.2203 17.5822 13.0489 17.125 8.59126 16.2485C7.12909 15.9762 5.72338 15.6386 4.49176 15.1217C1.9376 14.0495 0.13381 12.2032 0.13381 8.55292C0.13381 3.8296 4.05769 0.477539 10.0769 0.477539C15.0564 0.477539 18.6008 2.53358 19.8971 5.92575C19.9566 6.08374 19.9534 6.25852 19.888 6.41417C19.8226 6.56981 19.7 6.69449 19.5455 6.76256L16.0674 8.31186C15.915 8.37925 15.7428 8.38684 15.585 8.33312C15.4272 8.27941 15.2953 8.16832 15.2157 8.02191C14.66 7.02289 13.8178 6.21326 12.7977 5.69744C11.8308 5.20873 10.7489 4.99293 9.66852 5.07327C8.58812 5.15361 7.55007 5.52704 6.66609 6.15338C6.40833 6.4133 6.20625 6.72303 6.07217 7.06365C5.9381 7.40426 5.87484 7.76863 5.88627 8.13451C5.88627 9.86134 7.21208 10.5039 9.9751 11.1162C10.6876 11.2739 11.4951 11.4297 12.4006 11.6012C12.8225 11.6786 13.2392 11.7603 13.6491 11.8495C14.3299 11.9978 14.9901 12.1657 15.6175 12.3661C18.7086 13.3539 21.0012 15.1293 20.9722 19.1823Z" fill="black"/>
</g>
<defs>
<clipPath id="clip0_907_202261">
<rect width="144" height="34.2799" fill="white" transform="translate(0 0.477539)"/>
</clipPath>
</defs>
</svg>
