<svg width="16" height="16" viewBox="0 0 16 16" fill="none" xmlns="http://www.w3.org/2000/svg">
<path d="M4.46056 2.33973C3.87478 1.75394 2.92503 1.75394 2.33924 2.33973C1.75346 2.92552 1.75346 3.87526 2.33924 4.46105L5.87526 7.99707L2.33947 11.5329C1.75368 12.1186 1.75368 13.0684 2.33947 13.6542C2.92526 14.24 3.875 14.24 4.46079 13.6542L7.99658 10.1184L11.5316 13.6534C12.1174 14.2392 13.0672 14.2392 13.653 13.6534C14.2387 13.0677 14.2387 12.1179 13.653 11.5321L10.1179 7.99707L13.6532 4.4618C14.239 3.87601 14.239 2.92626 13.6532 2.34048C13.0674 1.75469 12.1176 1.75469 11.5319 2.34048L7.99658 5.87575L4.46056 2.33973Z" fill="#C4C4C4"/>
</svg>
