<svg width="64" height="61" viewBox="0 0 64 61" fill="none" xmlns="http://www.w3.org/2000/svg">
<path d="M17.2117 9.06033C16.8551 5.56424 17.4355 3.97233 21.3859 3.23963C28.1581 1.98356 28.9083 10.75 29.1212 11.8979C29.3341 13.0458 39.6308 8.76121 42.6655 9.38577C45.7001 10.0103 44.9491 16.9772 45.4282 19.56C45.9072 22.1429 59.8189 16.8909 60.5532 27.1445C61.2875 37.3982 51.4064 34.4813 49.4844 35.1346C47.5624 35.7879 53.1789 42.4644 53.2373 47.5C53.2956 52.5357 42.2377 54.2898 39.416 54.8132C36.5943 55.3365 36.9515 43.0993 30.4615 44.3031C23.9716 45.5068 24.2801 53.4646 24.3705 55.5258C24.4609 57.587 14.4945 57.3575 10.5441 58.0902C6.59368 58.823 3.70334 44.8133 7.98915 44.3152C12.2749 43.8172 16.875 40.2923 15.8637 34.8397C15.0546 30.4776 8.42096 30.382 5.20527 30.8795L3.14541 18.2L18.3827 15.3739C18.1112 14.4347 17.4969 11.8572 17.2117 9.06033Z" stroke="black" stroke-width="5" stroke-linecap="round" stroke-linejoin="round"/>
</svg>
